<?xml version="1.0" standalone="no"?>
<!DOCTYPE svg PUBLIC "-//W3C//DTD SVG 20010904//EN"
 "http://www.w3.org/TR/2001/REC-SVG-20010904/DTD/svg10.dtd">
<svg version="1.0" xmlns="http://www.w3.org/2000/svg"
 width="2048.000000pt" height="2048.000000pt" viewBox="0 0 2048.000000 2048.000000"
 preserveAspectRatio="xMidYMid meet">
<metadata>
Created by potrace 1.11, written by Peter Selinger 2001-2013
</metadata>
<g transform="translate(0.000000,2048.000000) scale(0.100000,-0.100000)"
fill="#000000" stroke="none">
<path d="M9954 17988 c-16 -13 -74 -61 -129 -108 -392 -337 -659 -492 -980
-570 -155 -38 -254 -51 -435 -57 -324 -11 -606 27 -1220 163 -753 168 -973
204 -1243 204 -180 0 -315 -17 -484 -61 -248 -63 -516 -186 -745 -341 -32 -21
-58 -36 -58 -33 0 3 -9 -4 -20 -15 -12 -12 -26 -18 -32 -14 -7 4 -8 3 -4 -4 8
-13 -28 -35 -39 -24 -5 4 -5 2 -2 -4 4 -6 -13 -25 -37 -42 -50 -36 -122 -94
-151 -121 -85 -79 -137 -121 -146 -116 -5 4 -8 1 -7 -7 2 -7 -3 -12 -10 -10
-8 1 -11 -1 -8 -6 7 -12 -128 -144 -138 -135 -4 4 -4 -1 0 -12 6 -15 4 -17
-10 -12 -10 4 -15 3 -11 -3 3 -5 -33 -53 -80 -107 -76 -87 -196 -252 -233
-323 -33 -61 -2 -125 57 -121 56 3 70 5 68 11 -1 3 1 6 5 8 4 1 20 14 34 27
36 34 53 32 23 -2 -13 -15 -28 -31 -32 -34 -5 -3 -9 -10 -10 -15 0 -5 -15 -31
-32 -59 -77 -122 -78 -125 -61 -131 10 -4 47 14 95 45 113 73 209 115 347 154
396 112 633 104 1159 -39 55 -14 129 -34 165 -44 l65 -17 -295 -6 c-322 -7
-483 -20 -517 -43 -17 -11 -23 -24 -23 -52 0 -53 24 -72 154 -117 140 -48 188
-70 178 -80 -4 -5 -2 -5 5 -1 7 3 27 0 45 -7 31 -13 27 -14 -88 -21 -67 -3
-145 -9 -175 -12 -91 -10 -92 -32 -1 -60 82 -26 310 -118 428 -174 153 -73
275 -152 370 -243 97 -92 187 -204 177 -221 -3 -6 -3 -8 2 -4 20 19 148 -222
193 -362 86 -267 49 -753 -149 -1975 -133 -824 -171 -1085 -209 -1440 -11
-104 -29 -313 -40 -464 -11 -151 -23 -278 -28 -283 -4 -4 -70 -21 -147 -37
-572 -121 -1093 -296 -1485 -501 -47 -24 -87 -44 -90 -45 -8 -1 -264 -173
-285 -192 -33 -30 -109 -124 -150 -185 -21 -32 -41 -55 -46 -52 -5 3 -6 -3 -2
-12 5 -13 3 -15 -7 -9 -8 5 -11 4 -6 -3 4 -6 -5 -35 -20 -64 -65 -128 -101
-292 -92 -419 5 -69 5 -69 -21 -69 -14 -1 -377 -2 -806 -4 -429 -2 -793 -6
-810 -10 -16 -3 -214 -9 -440 -12 -417 -7 -602 0 -848 32 -118 15 -115 13
-244 122 -29 25 -53 41 -53 37 0 -4 -7 -2 -15 5 -10 9 -15 9 -15 1 0 -6 -6
-11 -13 -11 -23 0 -47 -35 -47 -68 0 -42 155 -356 232 -471 16 -24 27 -45 25
-48 -13 -12 -62 16 -134 78 -86 73 -103 81 -103 50 0 -23 131 -290 189 -385
23 -37 39 -71 35 -77 -3 -5 -1 -8 4 -7 11 3 72 -75 72 -91 0 -5 3 -11 8 -13 4
-1 34 -37 67 -78 71 -89 60 -78 161 -181 44 -46 104 -104 132 -128 29 -24 49
-48 45 -54 -3 -6 -1 -7 5 -3 6 3 50 -23 97 -59 75 -58 180 -130 210 -145 6 -3
36 -20 67 -38 l57 -33 -27 -49 c-15 -26 -31 -46 -36 -43 -5 4 -6 2 -3 -4 3 -5
-12 -51 -33 -102 -112 -257 -185 -621 -211 -1041 -14 -216 -10 -265 21 -287
22 -16 22 -18 15 -164 l-7 -149 35 2 c19 2 33 6 31 9 -5 9 163 85 276 126 185
67 433 117 715 145 141 14 620 16 1710 8 670 -5 741 -2 1033 40 159 24 226 38
392 86 115 33 301 99 392 138 44 19 43 22 53 -104 19 -235 77 -672 120 -898
45 -238 144 -673 195 -853 125 -439 295 -819 477 -1060 29 -39 50 -75 47 -81
-4 -6 -2 -8 4 -4 6 3 18 -4 26 -16 29 -41 155 -165 219 -216 190 -151 379
-235 600 -268 158 -23 647 -15 857 15 554 78 1125 239 1674 473 176 75 625
293 706 343 19 12 60 35 90 52 203 111 487 291 742 470 45 31 146 106 274 203
96 73 315 250 370 299 27 25 72 65 100 88 51 43 85 74 196 181 42 39 72 61 79
56 7 -4 10 -3 6 2 -3 5 76 93 176 195 183 186 209 214 419 454 89 102 238 284
361 440 80 103 137 180 137 187 0 5 5 6 12 2 6 -4 8 -3 5 3 -4 6 25 54 64 108
38 53 118 169 177 258 59 89 110 164 114 165 5 2 8 9 8 15 0 6 22 45 49 86 75
117 295 495 356 613 22 43 45 79 51 82 8 3 114 -12 272 -41 25 -4 32 -10 28
-22 -92 -288 -94 -301 -75 -376 5 -22 14 -87 19 -145 15 -162 59 -325 108
-397 124 -183 347 -309 767 -437 412 -125 721 -153 1545 -140 915 15 1486 11
1675 -10 385 -43 685 -124 914 -247 59 -32 81 -36 82 -16 3 39 -3 253 -7 259
-3 4 0 8 5 8 6 0 20 9 31 20 18 18 20 33 20 158 0 247 -40 573 -101 821 -50
205 -110 362 -187 493 -19 31 -31 62 -27 68 3 6 28 21 55 35 136 69 440 302
558 429 29 31 58 53 64 50 7 -4 8 -2 4 5 -5 7 6 27 26 49 41 45 172 219 212
282 39 59 86 147 163 303 91 184 85 197 -42 89 -68 -58 -115 -90 -115 -78 0 1
23 41 51 87 70 116 199 383 199 412 0 34 -29 66 -66 73 -28 5 -40 -1 -105 -57
-41 -34 -81 -68 -90 -76 -19 -16 -194 -38 -429 -54 -169 -11 -883 -6 -955 7
-16 3 -403 8 -860 11 l-830 5 3 97 c6 158 -36 322 -117 460 -17 28 -31 54 -31
57 0 3 -7 12 -16 21 -8 9 -13 22 -10 30 3 8 2 12 -3 9 -5 -3 -27 18 -48 47
-63 82 -115 129 -220 199 -157 104 -239 148 -498 268 -88 41 -390 152 -546
201 l-135 43 14 40 c38 109 186 602 222 741 5 17 24 93 44 170 20 77 41 157
46 178 l11 37 148 0 c409 0 991 113 1531 299 361 123 707 261 716 285 2 6 -9
45 -25 85 l-29 75 66 31 c116 54 151 75 168 99 14 23 14 30 -6 102 -44 156
-53 160 -207 111 -169 -55 -272 -71 -473 -71 -214 0 -369 23 -545 82 -427 142
-789 423 -1132 878 -106 140 -261 305 -405 430 -56 49 -110 97 -120 107 -10 9
-18 14 -18 11 0 -4 -7 -1 -15 6 -8 7 -13 16 -10 19 2 4 -1 8 -8 8 -7 0 -43 20
-82 45 -100 64 -182 97 -267 108 -109 14 -339 12 -455 -5 -290 -41 -779 -198
-1213 -390 -58 -26 -109 -47 -115 -49 -27 -5 -236 -121 -254 -140 -14 -15 -24
-51 -35 -130 -15 -100 -15 -111 0 -134 9 -13 28 -29 43 -35 l27 -10 -12 -76
c-19 -113 -19 -114 14 -108 15 3 81 20 147 38 112 30 131 32 290 33 160 0 175
-1 252 -27 85 -29 210 -104 206 -125 -2 -6 3 -9 11 -6 13 5 93 -84 88 -98 -1
-5 2 -8 7 -8 13 0 95 -165 119 -240 29 -89 42 -202 49 -420 13 -413 -59 -939
-205 -1505 -33 -131 -41 -150 -58 -148 -10 1 -80 9 -154 17 -460 54 -713 73
-1065 81 -627 15 -1922 25 -3237 25 -1369 0 -1447 1 -1451 18 -8 37 4 3868 14
4077 14 320 42 594 74 734 32 135 104 308 180 427 65 103 121 159 262 265 76
57 154 117 173 134 234 204 607 580 865 870 88 100 209 261 244 325 43 80 71
139 71 149 0 19 -27 12 -59 -15 -35 -29 -39 -24 -13 14 41 60 120 209 127 239
5 27 2 37 -19 58 -31 31 -74 32 -112 3z m-3696 -2138 c144 -34 161 -38 332
-69 149 -27 304 -49 461 -66 l57 -6 -20 -62 c-43 -138 -122 -449 -163 -642
-127 -589 -191 -1247 -215 -2195 -6 -228 -13 -487 -16 -575 l-6 -160 -151 2
-151 2 2 58 c7 166 43 624 88 1103 19 206 48 519 64 695 17 176 38 388 47 470
22 193 25 683 5 795 -18 100 -44 191 -75 268 -14 34 -23 62 -19 62 4 0 2 4 -3
8 -6 4 -29 36 -52 72 -24 36 -58 81 -77 99 -20 19 -33 38 -30 43 3 5 2 7 -3 6
-4 -2 -33 16 -63 39 -30 23 -68 49 -85 57 -39 21 -31 20 73 -4z m401 -4387
l24 -6 -5 -423 c-2 -233 -7 -427 -11 -430 -6 -7 -271 -43 -317 -44 l-25 0 2
102 c7 341 26 784 33 792 21 22 221 28 299 9z m5649 -3996 c340 -18 482 -28
482 -34 0 -7 -54 -110 -138 -263 -47 -85 -90 -164 -96 -175 -87 -159 -182
-313 -189 -308 -6 3 -7 2 -4 -4 4 -6 -8 -32 -25 -59 -18 -27 -32 -51 -33 -54
0 -3 -20 -37 -44 -75 -25 -39 -53 -85 -64 -104 -21 -38 -212 -332 -298 -458
-9 -12 -19 -20 -24 -15 -4 4 -5 2 -2 -4 15 -26 -539 -774 -567 -766 -6 2 -8 0
-4 -4 10 -9 -11 -36 -23 -28 -5 3 -6 -2 -3 -10 3 -9 -3 -20 -15 -28 -12 -7
-21 -17 -21 -21 0 -16 -82 -102 -94 -99 -6 2 -8 0 -4 -4 8 -8 -10 -31 -120
-154 -167 -186 -419 -434 -573 -562 -24 -21 -57 -48 -73 -62 -17 -14 -35 -22
-40 -19 -6 3 -8 3 -4 -2 10 -11 -50 -58 -63 -49 -7 4 -9 3 -6 -4 9 -13 -72
-74 -86 -65 -6 3 -7 1 -3 -5 8 -13 -213 -155 -232 -147 -7 2 -10 0 -7 -5 3 -6
1 -10 -5 -10 -7 0 -24 -8 -38 -18 -24 -16 -53 -30 -167 -78 -168 -71 -399 -62
-585 22 -79 36 -151 84 -143 97 3 5 1 7 -4 4 -14 -9 -65 32 -57 44 3 5 2 9 -3
8 -4 -1 -13 -1 -18 0 -11 1 -127 133 -129 147 0 5 -11 19 -23 33 -13 13 -23
28 -23 33 0 6 -9 21 -20 35 -11 14 -17 30 -13 36 3 5 1 7 -4 4 -15 -9 -97 174
-148 328 -88 265 -120 461 -164 1020 -46 578 -54 689 -101 1515 -6 96 -13 219
-16 273 -3 53 -5 98 -3 98 26 11 833 16 2139 14 1285 -3 1664 -6 1898 -18z
m-5554 -199 c17 -246 28 -400 35 -476 7 -78 6 -83 -13 -87 -93 -21 -121 -25
-197 -25 l-85 0 -17 173 c-29 292 -41 456 -35 462 4 4 215 36 294 44 7 1 14
-33 18 -91z m135 -1430 c43 -330 112 -722 185 -1058 77 -351 161 -694 198
-804 44 -132 31 -190 -49 -217 -70 -23 -169 14 -223 83 -124 159 -262 788
-384 1753 -50 389 -47 365 -33 366 6 0 68 11 137 23 69 13 130 24 135 25 7 0
20 -70 34 -171z"/>
</g>
</svg>
